<?xml version="1.0" encoding="UTF-8"?>
<svg id="Layer_2" data-name="Layer 2" xmlns="http://www.w3.org/2000/svg" viewBox="0 0 1180.09144 427.96539">
  <defs>
    <style>
      .cls-1 {
        fill: #3157a4;
      }

      .cls-1, .cls-2, .cls-3 {
        stroke-width: 0px;
      }

      .cls-2 {
        fill: #979797;
      }

      .cls-3 {
        fill: #0a2d41;
      }
    </style>
  </defs>
  <g id="Layer_1-2" data-name="Layer 1">
    <g>
      <path class="cls-3" d="M287.62731,88.82243c17.41631,0,33.4085,3.32528,47.97516,9.97584,14.88235,6.33204,27.70642,15.19945,38.47356,26.59939,10.76575,11.39853,19.15751,24.69823,25.17389,39.89908,6.01635,15.19945,9.02452,31.50733,9.02452,48.92365,0,17.09919-3.00817,33.24852-9.02452,48.44797-6.01638,15.19945-14.40814,28.49913-25.17389,39.89909-10.76715,11.39994-23.59121,20.42446-38.47356,27.07503-14.56666,6.33345-30.55885,9.49876-47.97516,9.49876-18.68184,0-35.62391-3.64096-50.82336-10.92429l20.42446-50.82339c7.60045,3.16672,16.14933,4.7494,25.64953,4.7494,19.31606,0,35.46539-6.64914,48.44938-19.94884,13.29971-13.29968,19.94884-29.2919,19.94884-47.97373,0-19.00039-6.64914-35.1497-19.94884-48.4494-13.29968-13.29971-29.45042-19.94883-48.44938-19.94883-18.36617,0-34.51551,6.64912-48.4494,19.94883-13.29969,13.29971-19.94883,29.44901-19.94883,48.4494v118.74737h-56.99829V0h56.99829v113.99772c9.18309-7.28333,19.79171-13.29969,31.82441-18.05049,12.03273-4.7494,25.80808-7.1248,41.32319-7.1248ZM434.40246,332.49211V94.99734h56.99972v237.49477h-56.99972ZM434.40246,0h56.99972v56.99858h-56.99972V0ZM643.12769,145.34649c-19.00039,0-35.14967,6.65057-48.4494,19.95025-13.29968,13.29971-19.94882,29.44904-19.94882,48.448,0,18.68327,6.64914,34.67405,19.94882,47.97373,6.33345,6.65057,13.61683,11.71703,21.84999,15.19945,8.54891,3.16672,17.41631,4.7508,26.59941,4.7508s17.89055-1.58408,26.12377-4.7508c8.23321-3.48242,15.67509-8.54888,22.32423-15.19945,13.29968-13.29968,19.95022-29.29047,19.95022-47.97373,0-18.99896-6.65054-35.14829-19.95022-48.448-13.93247-13.29968-30.0818-19.95025-48.448-19.95025ZM643.12769,88.3482c17.41631,0,33.7242,3.32528,48.92365,9.97442,15.19945,6.33346,28.49913,15.19945,39.89909,26.59939,11.39991,11.39994,20.26591,24.69963,26.59936,39.89908,6.64914,15.19945,9.97444,31.50733,9.97444,48.92365,0,17.09919-3.3253,33.24993-9.97444,48.44938-6.33345,15.19945-15.19945,28.49916-26.59936,39.89909-11.39996,11.39994-24.69964,20.42449-39.89909,27.07363-15.19945,6.33345-31.50733,9.50017-48.92365,9.50017s-33.7242-3.16672-48.92365-9.50017c-15.20085-6.64914-28.50053-15.67369-39.89904-27.07363-11.39996-11.39994-20.42452-24.69964-27.07506-39.89909-6.33345-15.19945-9.5002-31.35019-9.5002-48.44938,0-17.41631,3.16675-33.7242,9.5002-48.92365,6.65054-15.19945,15.67509-28.49914,27.07506-39.89908,11.39851-11.39994,24.69819-20.26593,39.89904-26.59939,15.19945-6.64914,31.50733-9.97442,48.92365-9.97442ZM904.54208,56.99858c-7.91612,0-15.358,1.58336-22.32423,4.74995-6.65054,2.84991-12.66689,6.80797-18.05051,11.87445-5.06647,5.06649-9.18305,11.08284-12.3498,18.05051-3.16675,6.64914-4.74937,13.93247-4.74937,21.84859h33.72414l14.24956,56.9983h-47.97371v161.97173h-56.99831V113.52207c.31569-15.19945,3.3253-29.60758,9.02455-43.22436,5.69925-13.93248,13.93247-26.28216,24.69964-37.04861,10.76572-10.76631,23.11557-18.99952,37.04944-24.69935,13.93247-5.69983,28.49913-8.54974,43.69858-8.54974v56.99858ZM1180.09144,94.99734l-110.19849,237.49477-14.7238,32.29867c-8.86606,19.31743-22.16574,34.67543-39.89915,46.07399-17.73341,11.39991-37.36648,17.10062-58.89803,17.10062h-25.17524l14.24956-56.99972h13.77532c9.18305,0,17.73201-2.53253,25.64948-7.59902,7.91617-5.06649,13.77392-11.87558,17.57346-20.42449l4.75083-10.45005-110.19709-237.49477h62.69757l78.8483,170.0464,78.8483-170.0464h62.69897Z"/>
      <path class="cls-2" d="M280.79417,363.04955v10.08768h-17.23228v48.75376h-10.08625v-48.75376h-17.31579v-10.08768h44.63431ZM333.43943,373.13723h-29.50423v14.2892h21.9392l2.52119,10.08768h-24.46039v14.2892h29.50423v10.08768h-39.59188v-58.84143h39.59188v10.08768ZM393.82811,413.98902c-2.80148,2.80294-6.05175,5.01554-9.75074,6.64066-3.69758,1.56993-7.67689,2.35414-11.93504,2.35414-4.20296,0-8.18226-.78421-11.93647-2.35414-3.69899-1.62512-6.94925-3.81082-9.75076-6.55572-2.74627-2.80294-4.93197-6.05318-6.55712-9.75076-1.5685-3.75564-2.35416-7.73349-2.35416-11.93647s.78567-8.15394,2.35416-11.85293c1.62515-3.75418,3.81085-7.00447,6.55712-9.75074,2.80151-2.80151,6.05177-4.98722,9.75076-6.55572,3.7542-1.62512,7.73351-2.4377,11.93647-2.4377,4.25815,0,8.23745.81259,11.93504,2.4377,3.69899,1.5685,6.94925,3.7542,9.75074,6.55572l-7.1446,7.14457c-1.96063-1.96063-4.17463-3.44559-6.64063-4.45493-2.466-1.06453-5.09905-1.59679-7.90054-1.59679-2.7463,0-5.35246.53226-7.81846,1.59679-2.466,1.00934-4.6786,2.4943-6.64063,4.45493-1.96063,1.96209-3.47391,4.17609-4.53847,6.64066-1.00934,2.46603-1.51328,5.07214-1.51328,7.81843,0,2.74489.50394,5.37935,1.51328,7.90057,1.06456,2.46597,2.57784,4.68003,4.53847,6.64066,1.96203,1.96203,4.17463,3.44702,6.64063,4.4549,2.466,1.00934,5.07216,1.51328,7.81846,1.51328,2.80148,0,5.43454-.50394,7.90054-1.51328,2.466-1.00788,4.68-2.49287,6.64063-4.4549l7.1446,7.06106ZM440.59434,363.04955h10.08625v58.84143h-10.08625v-24.37688h-24.4618v24.37688h-10.08627v-58.84143h10.08627v24.37688h24.4618v-24.37688ZM499.48392,362.96604h10.08762v58.84h-10.92853l-23.61951-40.2629v40.2629h-10.08768v-58.84h10.92853l23.61956,40.26433v-40.26433ZM553.583,371.87592c-2.7463,0-5.351.53226-7.81703,1.59679-2.46597,1.00934-4.68003,2.4943-6.64061,4.45493-1.96209,1.96209-3.47537,4.17609-4.5399,6.64066-1.00794,2.46603-1.51328,5.07214-1.51328,7.81843,0,2.74489.50535,5.37935,1.51328,7.90057,1.06453,2.46597,2.57781,4.68003,4.5399,6.64066,1.96057,1.96203,4.17463,3.44702,6.64061,4.4549,2.46603,1.00934,5.07073,1.51328,7.81703,1.51328s5.35246-.50394,7.81703-1.51328c2.52262-1.00788,4.76357-2.49287,6.7256-4.4549,1.96063-1.96063,3.44561-4.17469,4.4549-6.64066,1.00794-2.52122,1.51334-5.15568,1.51334-7.90057,0-2.7463-.5054-5.3524-1.51334-7.81843-1.00929-2.46457-2.49427-4.67857-4.4549-6.64066-1.96203-1.96063-4.20298-3.44559-6.7256-4.45493-2.46457-1.06453-5.07073-1.59679-7.81703-1.59679ZM553.583,361.78965c4.20298,0,8.15394.81259,11.85293,2.4377,3.75423,1.5685,7.00447,3.7542,9.75076,6.55572,2.80148,2.74627,4.98719,5.99656,6.55572,9.75074,1.62512,3.69899,2.43768,7.65,2.43768,11.85293s-.81256,8.18083-2.43768,11.93647c-1.56852,3.69758-3.75423,6.94782-6.55572,9.75076-2.7463,2.74489-5.99653,4.9306-9.75076,6.55572-3.69899,1.56993-7.64995,2.35414-11.85293,2.35414s-8.18224-.78421-11.93647-2.35414c-3.69899-1.62512-6.94922-3.81082-9.75071-6.55572-2.7463-2.80294-4.9306-6.05318-6.55572-9.75076-1.56993-3.75564-2.35419-7.73349-2.35419-11.93647s.78426-8.15394,2.35419-11.85293c1.62512-3.75418,3.80942-7.00447,6.55572-9.75074,2.80148-2.80151,6.05172-4.98722,9.75071-6.55572,3.75423-1.62512,7.73354-2.4377,11.93647-2.4377ZM607.743,411.80331h23.11697v10.08768h-33.20324v-58.75649h10.08627v48.66881ZM670.21403,371.87592c-2.7463,0-5.351.53226-7.81703,1.59679-2.46597,1.00934-4.67998,2.4943-6.64061,4.45493-1.96203,1.96209-3.47537,4.17609-4.5399,6.64066-1.00794,2.46603-1.51328,5.07214-1.51328,7.81843,0,2.74489.50535,5.37935,1.51328,7.90057,1.06453,2.46597,2.57786,4.68003,4.5399,6.64066,1.96063,1.96203,4.17463,3.44702,6.64061,4.4549,2.46603,1.00934,5.07073,1.51328,7.81703,1.51328s5.35246-.50394,7.81703-1.51328c2.52262-1.00788,4.76357-2.49287,6.7256-4.4549,1.96063-1.96063,3.44561-4.17469,4.45495-6.64066,1.00788-2.52122,1.51328-5.15568,1.51328-7.90057,0-2.7463-.5054-5.3524-1.51328-7.81843-1.00934-2.46457-2.49432-4.67857-4.45495-6.64066-1.96203-1.96063-4.20298-3.44559-6.7256-4.45493-2.46457-1.06453-5.07073-1.59679-7.81703-1.59679ZM670.21403,361.78965c4.20298,0,8.15394.81259,11.85298,2.4377,3.75418,1.5685,7.00441,3.7542,9.75071,6.55572,2.80154,2.74627,4.98724,5.99656,6.55572,9.75074,1.62512,3.69899,2.43768,7.65,2.43768,11.85293s-.81256,8.18083-2.43768,11.93647c-1.56847,3.69758-3.75418,6.94782-6.55572,9.75076-2.7463,2.74489-5.99653,4.9306-9.75071,6.55572-3.69904,1.56993-7.65,2.35414-11.85298,2.35414s-8.18224-.78421-11.93641-2.35414c-3.69904-1.62512-6.94928-3.81082-9.75076-6.55572-2.7463-2.80294-4.9306-6.05318-6.55572-9.75076-1.56993-3.75564-2.35419-7.73349-2.35419-11.93647s.78426-8.15394,2.35419-11.85293c1.62512-3.75418,3.80942-7.00447,6.55572-9.75074,2.80148-2.80151,6.05172-4.98722,9.75076-6.55572,3.75418-1.62512,7.73349-2.4377,11.93641-2.4377ZM774.22067,387.34289c.11324.84091.19673,1.68036.25337,2.52122.11184.84091.16703,1.68177.16703,2.52262,0,4.20298-.81256,8.18083-2.43768,11.93647-1.56847,3.69758-3.75423,6.94782-6.55572,9.75076-2.7463,2.74489-5.99653,4.9306-9.75076,6.55572-3.69899,1.56993-7.64995,2.35414-11.85293,2.35414s-8.18083-.78421-11.93647-2.35414c-3.69758-1.62512-6.94782-3.81082-9.75071-6.55572-2.74489-2.80294-4.9306-6.05318-6.55572-9.75076-1.56993-3.75564-2.35419-7.73349-2.35419-11.93647s.78426-8.15394,2.35419-11.85293c1.62512-3.75418,3.81082-7.00447,6.55572-9.75074,2.80289-2.80151,6.05312-4.98722,9.75071-6.55572,3.75564-1.62512,7.73354-2.4377,11.93647-2.4377,4.25958,0,8.23748.81259,11.93647,2.4377,3.69899,1.5685,6.92093,3.7542,9.66722,6.55572l-7.06106,7.14457c-1.96203-1.96063-4.20298-3.44559-6.7242-4.45493-2.46597-1.06453-5.07214-1.59679-7.81843-1.59679s-5.351.53226-7.81703,1.59679c-2.46597,1.00934-4.68003,2.4943-6.64061,4.45493-1.96209,1.96209-3.47396,4.17609-4.5399,6.64066-1.00794,2.46603-1.51188,5.07214-1.51188,7.81843,0,2.74489.50394,5.37935,1.51188,7.90057,1.06593,2.46597,2.57781,4.68003,4.5399,6.64066,1.96057,1.96203,4.17463,3.44702,6.64061,4.4549,2.46603,1.00934,5.07073,1.51328,7.81703,1.51328s5.35246-.50394,7.81843-1.51328c2.52122-1.00788,4.76217-2.49287,6.7242-4.4549,2.63305-2.74489,4.4266-5.91164,5.3793-9.49879h-27.23496l2.52262-10.08627h34.96709ZM798.62444,363.1345v58.75649h-10.08627v-58.75649h10.08627ZM852.94293,373.13723h-29.5042v14.2892h21.9392l2.52116,10.08768h-24.46036v14.2892h29.5042v10.08768h-39.59188v-58.84143h39.59188v10.08768ZM908.26515,405.07916c0,2.7463-.44875,5.23916-1.34485,7.48152-.8975,2.18571-2.18571,4.0628-3.86742,5.63132-1.62512,1.51328-3.6141,2.68965-5.96823,3.5305-2.35279.84091-4.98724,1.26131-7.90057,1.26131-4.65168,0-8.79802-.72902-12.44181-2.18571-3.64239-1.51328-6.64066-3.22194-8.99339-5.12732l6.97612-6.97757c1.85025,1.68177,3.92266,2.96997,6.2202,3.86747,1.4015.56059,2.718.9244,3.95101,1.09283,1.23301.16703,2.2423.25197,3.02656.25197,1.45669,0,2.77319-.16843,3.95101-.50394,1.23296-.39356,2.29754-.8975,3.19359-1.51328,1.90544-1.40144,2.85813-3.25024,2.85813-5.54778,0-1.4015-.50394-2.66281-1.51328-3.78253-.78426-.8975-1.79214-1.62512-3.02516-2.18571-1.00934-.56059-2.07387-1.00934-3.19505-1.34485-1.12118-.33691-2.12911-.64553-3.02516-.9258-.28032-.11184-.5337-.16708-.75737-.16708-.22367-.05659-.42045-.14013-.58889-.25197-.11184,0-.27886-.05659-.504-.16843-1.17637-.33691-2.88643-.9244-5.12732-1.76531-2.18571-.84086-4.37141-1.98893-6.55712-3.44702-5.09903-3.41726-7.6486-7.62025-7.6486-12.60884,0-3.30548.56059-6.08007,1.68036-8.32099,1.17777-2.29754,2.69105-4.14774,4.53984-5.54778,1.84879-1.45669,3.89436-2.49432,6.13672-3.11013,2.29754-.61721,4.53844-.9244,6.72415-.9244,4.0345,0,7.42492.47567,10.17122,1.42836,2.7463.95272,4.932,1.90541,6.55712,2.85813.83945.50397,1.54017,1.00791,2.10076,1.51328.61578.44735,1.14947.86778,1.59682,1.25991l-7.1446,7.22952c-1.51328-1.51328-3.05351-2.66132-4.62338-3.44699-2.35419-1.11977-4.81876-1.68033-7.39663-1.68033-1.12112,0-2.2423.14013-3.36207.42043-1.12118.28029-2.10217.6441-2.94308,1.09285-2.46597,1.51328-3.69758,3.50221-3.69758,5.96823,0,1.51328.504,2.80148,1.51188,3.86601.72907.84091,1.73841,1.59682,3.02662,2.26925,1.06453.56059,2.18571,1.00934,3.36207,1.34485,1.17777.33691,2.26925.64553,3.27859.9258l1.00929.25197c.28032.11184.81256.28032,1.59682.504.78426.22362,1.70866.56053,2.77319,1.00929,1.06453.44735,2.21406.97964,3.44702,1.59682,1.2882.61578,2.54951,1.34485,3.78253,2.18571,5.43594,3.58575,8.15394,7.81703,8.15394,12.69243Z"/>
      <circle class="cls-1" cx="67.46789" cy="268.15104" r="67.46789"/>
    </g>
  </g>
</svg>